<svg width="250" height="115" viewBox="0 0 250 115" fill="none" xmlns="http://www.w3.org/2000/svg">
<path d="M0 56.8108H250V111.353H0V56.8108Z" fill="#18BFC0"/>
<path d="M1.63292 47.7453C1.22735 47.7027 0.917838 47.5216 0.704381 47.202C0.490925 46.8825 0.405543 46.5309 0.448234 46.1474C0.554962 45.487 0.757745 44.8798 1.05658 44.3258C1.35542 43.7719 1.56888 43.3564 1.69695 43.0795C1.84637 42.8025 1.99579 42.4936 2.14521 42.1527L3.36191 39.3404L16.5215 0L30.6736 27.2922L44.4096 0L60.835 47.266H43.6411L35.7005 22.85L23.4055 48.4165L10.47 25.4067L5.98742 39.3723C5.28302 40.9276 4.7814 42.2486 4.48256 43.3351C4.18372 44.4217 3.93824 45.2633 3.74613 45.8598C3.31922 47.202 2.61482 47.8306 1.63292 47.7453Z" fill="#18BFC0"/>
<path d="M79.2456 45.9557C78.6906 47.0636 77.9542 47.6175 77.0363 47.6175C76.1185 47.6175 75.6596 47.1488 75.6596 46.2113C75.6596 45.6361 75.937 45.0076 76.492 44.3258C77.602 43.0049 78.6586 41.4816 79.6619 39.7558L81.2948 36.8476L62.2758 2.04532H80.9426L90.0999 21.316L98.2966 6.77511C98.8943 5.66723 99.4066 4.5487 99.8335 3.41951C100.26 2.26902 100.826 1.69378 101.53 1.69378C102.406 1.69378 102.843 2.13054 102.843 3.00406C102.843 3.51539 102.651 4.10128 102.267 4.76175L80.3663 43.7506C80.1315 44.1767 79.9394 44.5282 79.7899 44.8052L79.2456 45.9557Z" fill="#18BFC0"/>
<path d="M126.761 44.6454C125.224 43.6014 124.007 42.3444 123.111 40.8744C122.214 39.383 121.766 37.8703 121.766 36.3363C121.766 34.8023 121.937 33.524 122.278 32.5013C122.641 31.4574 123.111 30.5412 123.687 29.753C124.883 28.1337 126.323 27.1963 128.01 26.9406C128.437 26.8767 128.767 26.9726 129.002 27.2283C129.258 27.4839 129.387 27.7822 129.387 28.1231C129.387 28.4427 129.248 28.7516 128.97 29.0499C128.714 29.3481 128.298 29.5505 127.722 29.6571C127.145 29.7636 126.612 30.0512 126.121 30.5199C125.651 30.9674 125.277 31.4893 125 32.0859C124.509 33.1512 124.264 34.4295 124.264 35.9209C124.264 37.3909 124.626 38.7438 125.352 39.9795C126.099 41.1939 127.135 42.2272 128.458 43.0795C131.212 44.8265 134.808 45.7 139.248 45.7C141.447 45.7 143.464 45.2207 145.3 44.2619C147.178 43.3032 148.117 42.174 148.117 40.8744C148.117 39.7239 147.626 38.5947 146.644 37.4868C145.15 35.8676 142.514 33.9501 138.736 31.7344C134.979 29.4973 132.14 27.665 130.219 26.2376C128.298 24.7888 126.793 23.404 125.704 22.083C123.762 19.782 122.791 17.1402 122.791 14.1574C122.833 10.429 124.605 7.38231 128.106 5.01741C131.564 2.65252 136.057 1.47007 141.586 1.47007C145.129 1.47007 148.352 2.17315 151.255 3.5793C153.411 4.60196 154.937 5.99746 155.834 7.76581C156.303 8.66063 156.538 9.74721 156.538 11.0255C156.538 12.3039 156.367 13.433 156.026 14.4131C155.706 15.3931 155.257 16.2027 154.681 16.8419C153.656 17.9924 152.194 18.7913 150.295 19.2388C150.038 19.3027 149.761 19.3346 149.462 19.3346C149.185 19.3346 148.928 19.2174 148.694 18.9831C148.459 18.7487 148.341 18.4824 148.341 18.1841C148.341 17.8646 148.469 17.5556 148.726 17.2574C149.003 16.9378 149.441 16.7673 150.038 16.746C150.636 16.7034 151.18 16.5649 151.671 16.3306C152.184 16.0962 152.621 15.7553 152.984 15.3079C153.795 14.3492 154.201 13.1987 154.201 11.8564C154.201 10.5142 153.998 9.44893 153.592 8.66063C153.187 7.87233 152.643 7.19056 151.96 6.61532C151.276 6.04007 150.497 5.55005 149.622 5.14525C148.768 4.74045 147.882 4.41021 146.965 4.15455C145.278 3.68583 143.549 3.45147 141.778 3.45147C138.554 3.45147 136.249 4.10128 134.862 5.40091C134.349 5.91224 134.093 6.54075 134.093 7.28644C134.093 8.01082 134.253 8.75651 134.573 9.5235C134.915 10.2905 135.481 11.0894 136.27 11.9204C137.978 13.7526 140.508 15.6168 143.859 17.513C147.21 19.3879 149.878 21.0177 151.863 22.4026C153.849 23.7874 155.417 25.0871 156.57 26.3015C158.619 28.4959 159.644 30.9887 159.644 33.7797C159.601 37.3164 158.331 40.2352 155.834 42.5362C151.97 46.0942 146.314 47.8732 138.864 47.8732C134.019 47.8732 129.984 46.7972 126.761 44.6454Z" fill="#18BFC0"/>
<path d="M183.53 47.8732C180.605 47.8732 177.99 47.3725 175.685 46.3711C173.401 45.3698 171.459 43.8678 169.858 41.8651C166.549 37.7318 164.895 31.6917 164.895 23.7448C164.895 16.6715 166.56 11.196 169.89 7.31839C173.22 3.41951 177.948 1.47007 184.074 1.47007C189.965 1.47007 194.512 3.44082 197.714 7.38231C200.852 11.2812 202.421 16.8845 202.421 24.1922C202.421 31.9048 200.734 37.817 197.362 41.929C194.074 45.8918 189.464 47.8732 183.53 47.8732ZM183.754 45.6681C191.332 45.6681 196.305 41.7905 198.674 34.0353C199.507 31.3295 199.923 28.0805 199.923 24.2881C199.923 20.4958 199.528 17.2893 198.738 14.6687C197.949 12.0482 196.849 9.91765 195.441 8.27714C192.73 5.12394 188.919 3.54734 184.01 3.54734H183.658V45.6681H183.754Z" fill="#18BFC0"/>
<path d="M208.28 42.9836C208.28 42.664 208.387 42.3764 208.6 42.1207C208.835 41.8437 209.134 41.7053 209.497 41.7053C209.86 41.7053 210.158 41.8118 210.393 42.0248C210.393 42.0248 210.66 42.2699 211.194 42.7599C213.414 44.6987 216.519 45.6681 220.511 45.6681C223.201 45.6681 224.93 45.1141 225.698 44.0062C225.911 43.708 226.018 43.4097 226.018 43.1114C226.018 42.7918 225.954 42.4936 225.826 42.2166C225.719 41.9183 225.474 41.5668 225.09 41.162C224.705 40.7359 224.161 40.2352 223.457 39.6599L220.639 37.3909C215.986 33.769 212.795 30.8289 211.066 28.5705C209.486 26.5039 208.696 24.3946 208.696 22.2428C208.696 19.537 209.945 17.268 212.442 15.4357C215.025 13.5183 218.366 12.5595 222.464 12.5595C225.346 12.5595 227.619 12.8897 229.284 13.5502C230.949 14.2107 232.123 14.8179 232.806 15.3718C233.489 15.9045 233.831 16.3945 233.831 16.8419C233.831 17.758 233.468 18.2161 232.742 18.2161C232.401 18.2161 232.08 18.0989 231.781 17.8646C231.504 17.6089 230.938 17.1934 230.085 16.6182C229.231 16.0216 228.099 15.5529 226.691 15.212C225.282 14.8711 223.969 14.7007 222.752 14.7007C221.536 14.7007 220.671 14.8925 220.159 15.276C219.668 15.6594 219.422 16.0429 219.422 16.4264C219.422 16.7886 219.497 17.1402 219.646 17.4811C219.796 17.8006 220.073 18.1841 220.479 18.6315C221.418 19.7394 222.923 21.0497 224.994 22.5624C227.064 24.0751 228.814 25.4599 230.245 26.7169C231.675 27.974 232.795 29.1351 233.607 30.2004C235.079 32.1178 235.816 34.0566 235.816 36.0167C235.816 37.9768 235.453 39.6599 234.727 41.0661C234.001 42.451 232.966 43.6441 231.621 44.6454C228.782 46.7972 224.994 47.8732 220.255 47.8732C216.455 47.8732 213.285 47.1488 210.745 45.7C209.102 44.7839 208.28 43.8784 208.28 42.9836Z" fill="#18BFC0"/>
<path d="M84.7101 67.6701C85.5853 67.6701 86.0229 68.1282 86.0229 69.0443C86.0229 69.513 85.8734 70.0563 85.5746 70.6742C85.2971 71.2707 85.073 71.7607 84.9022 72.1442L67.5162 115L46.4481 68.0217H63.9301L74.112 91.9263L81.2521 74.0937C82.0205 72.1762 82.5222 70.7914 82.757 69.9391C82.9918 69.0869 83.2479 68.501 83.5254 68.1814C83.8029 67.8406 84.1978 67.6701 84.7101 67.6701Z" fill="black"/>
<path d="M92.2024 68.0217H108.532V113.242H92.2024V68.0217Z" fill="black"/>
<path d="M156.047 105.668C156.922 105.668 157.36 106.158 157.36 107.138C157.36 107.948 156.741 108.758 155.503 109.567C153.198 111.08 151.255 112.071 149.676 112.539C146.708 113.413 143.592 113.85 140.326 113.85C137.06 113.85 133.912 113.274 130.881 112.124C127.871 110.952 125.299 109.322 123.164 107.234C118.703 102.845 116.472 97.1781 116.472 90.2325C116.472 86.8876 117.102 83.8196 118.361 81.0286C119.621 78.2163 121.361 75.8088 123.58 73.8061C128.277 69.5663 134.179 67.4464 141.287 67.4464C145.278 67.4464 148.79 68.1282 151.821 69.4917C155.044 70.9192 156.656 72.1336 156.656 73.1349C156.656 73.5397 156.517 73.8913 156.239 74.1896C155.983 74.4878 155.684 74.637 155.343 74.637C154.66 74.637 154.041 74.3387 153.486 73.7421C152.931 73.1243 152.173 72.5704 151.212 72.0803C150.273 71.5903 149.238 71.1642 148.107 70.802C145.801 70.0989 143.699 69.7474 141.799 69.7474C139.921 69.7474 138.362 69.8752 137.124 70.1309V111.101C138.618 111.357 139.942 111.485 141.095 111.485C142.247 111.485 143.421 111.41 144.617 111.261C145.812 111.112 146.986 110.867 148.139 110.526C150.721 109.759 152.664 108.63 153.966 107.138C154.436 106.584 154.809 106.201 155.087 105.988C155.364 105.775 155.684 105.668 156.047 105.668Z" fill="black"/>
<path d="M193.381 110.494C194.469 110.494 195.014 110.92 195.014 111.772C195.014 112.156 194.779 112.497 194.309 112.795C193.84 113.093 193.028 113.242 191.876 113.242H164.756V68.0217C173.166 68.0217 181.577 68.0217 189.987 68.0217L192.612 67.9258C194.213 67.9258 195.014 68.3945 195.014 69.3319C195.014 69.6941 194.875 70.035 194.597 70.3546C194.341 70.6529 194.042 70.802 193.701 70.802C193.146 70.802 192.559 70.7381 191.94 70.6103C191.022 70.4185 189.763 70.3226 188.162 70.3226H181.086V80.0698H186.913C186.913 80.0698 188.226 80.0166 190.851 79.9101C191.321 79.9101 191.716 80.0272 192.036 80.2616C192.377 80.4746 192.548 80.7836 192.548 81.1884C192.548 82.0832 191.951 82.5306 190.755 82.5306L189.378 82.4987C188.674 82.4347 188.087 82.4028 187.617 82.4028H181.086V110.909H188.162C189.741 110.909 190.862 110.845 191.524 110.718C192.313 110.568 192.932 110.494 193.381 110.494Z" fill="black"/>
<path d="M79.2456 61.1251C80.1208 61.1251 80.5584 61.5832 80.5584 62.4993C80.5584 62.968 80.409 63.5113 80.1101 64.1292C79.8326 64.7257 79.6085 65.2157 79.4377 65.5992L62.0517 108.455L40.9836 61.4766H58.4657L68.6475 85.3813L75.7876 67.5487C76.5561 65.6312 77.0577 64.2463 77.2925 63.3941C77.5273 62.5419 77.7834 61.956 78.0609 61.6364C78.3384 61.2955 78.7333 61.1251 79.2456 61.1251Z" fill="#E87FD4"/>
<path d="M86.7379 61.4766H103.067V106.697H86.7379V61.4766Z" fill="#E87FD4"/>
<path d="M150.583 99.1232C151.458 99.1232 151.895 99.6133 151.895 100.593C151.895 101.403 151.276 102.213 150.038 103.022C147.733 104.535 145.791 105.525 144.211 105.994C141.244 106.868 138.128 107.304 134.862 107.304C131.596 107.304 128.447 106.729 125.416 105.579C122.406 104.407 119.834 102.777 117.7 100.689C113.239 96.3003 111.008 90.633 111.008 83.6875C111.008 80.3425 111.638 77.2746 112.897 74.4836C114.156 71.6713 115.896 69.2638 118.116 67.2611C122.812 63.0213 128.714 60.9014 135.822 60.9014C139.814 60.9014 143.325 61.5832 146.356 62.9467C149.579 64.3742 151.191 65.5886 151.191 66.5899C151.191 66.9947 151.052 67.3463 150.775 67.6445C150.519 67.9428 150.22 68.092 149.878 68.092C149.195 68.092 148.576 67.7937 148.021 67.1971C147.466 66.5793 146.708 66.0253 145.748 65.5353C144.809 65.0453 143.773 64.6192 142.642 64.257C140.337 63.5539 138.234 63.2024 136.335 63.2024C134.456 63.2024 132.898 63.3302 131.66 63.5859V104.556C133.154 104.812 134.477 104.94 135.63 104.94C136.783 104.94 137.957 104.865 139.152 104.716C140.347 104.567 141.522 104.322 142.674 103.981C145.257 103.214 147.199 102.085 148.502 100.593C148.971 100.039 149.345 99.6559 149.622 99.4428C149.9 99.2298 150.22 99.1232 150.583 99.1232Z" fill="#E87FD4"/>
<path d="M187.916 103.949C189.005 103.949 189.549 104.375 189.549 105.227C189.549 105.611 189.314 105.952 188.845 106.25C188.375 106.548 187.564 106.697 186.411 106.697H159.292V61.4766C167.702 61.4766 176.112 61.4766 184.522 61.4766L187.148 61.3808C188.749 61.3808 189.549 61.8495 189.549 62.7869C189.549 63.1491 189.41 63.49 189.133 63.8096C188.877 64.1079 188.578 64.257 188.236 64.257C187.681 64.257 187.094 64.1931 186.475 64.0652C185.558 63.8735 184.298 63.7776 182.697 63.7776H175.621V73.5248H181.449C181.449 73.5248 182.761 73.4716 185.387 73.365C185.856 73.365 186.251 73.4822 186.571 73.7166C186.913 73.9296 187.084 74.2386 187.084 74.6434C187.084 75.5382 186.486 75.9856 185.291 75.9856L183.914 75.9536C183.21 75.8897 182.623 75.8578 182.153 75.8578H175.621V104.364H182.697C184.277 104.364 185.397 104.3 186.059 104.173C186.849 104.023 187.468 103.949 187.916 103.949Z" fill="#E87FD4"/>
</svg>
